# xmcd
#
# Track frame offsets:
#	150
#	17735
#	34125
#	49692
#	62175
#	81822
#	98710
#	117430
#	132015
#	149137
#	167405
#	183177
#	199535
#	214795
#
# Disc length: 3123 seconds
#
# Revision: 0
# Processed by: cddbd v1.4PL0 Copyright (c) Steve Scherf et al.
# Submitted via: dBpowerAMP V4.0
#
DISCID=c00c310e
DTITLE=Various Artist - Country Mountain Music
DYEAR=1900
DGENRE=Instrumental
TTITLE0=I Fall To Pieces - Hank Cochran/ Harlan Howard
TTITLE1=The Dance - Anthony M. Arata
TTITLE2=Feel So Right - Randy Yenell Owen
TTITLE3=Hello Darlin' - Conway Twitty
TTITLE4=I'll Still Be Loving You - Mary Ann Kenedy/ Patricia Karen Bunch
TTITLE5=Your Love Amazes Me - Amanda R. Hunt/ Charles Harmon Jones
TTITLE6=She Believes In Me - Stephen M. Gibbs
TTITLE7=Please Help Me I'm Falling - Hal Blair/Donald Robertson
TTITLE8=It's Your Love - Stephony E. Smith
TTITLE9=When You Say Nothing At All - Donald Alan Schlitz Jr./Paul L. Overstreet
TTITLE10=I Crossed My Heart - Stephen Hartley Dorff/Eric Justin Kaz
TTITLE11=Help Me Make It Through The Night - Kristoffer Kristofferson
TTITLE12=It Was Almost Like A Song - Hal Davis/Archie Jordan
TTITLE13=I Still Believe In You - John Barlow Jarvis/ Vincent Grant Gill
EXTD=
EXTT0=
EXTT1=
EXTT2=
EXTT3=
EXTT4=
EXTT5=
EXTT6=
EXTT7=
EXTT8=
EXTT9=
EXTT10=
EXTT11=
EXTT12=
EXTT13=
PLAYORDER=
